<?xml version="1.0" encoding="UTF-8"?>
<svg width="640" height="480" xmlns="http://www.w3.org/2000/svg">
 <title>Chemistry Flash</title>

 <g>
  <title>Layer 1</title>
  <path d="m135.59584,52.828251l10.880035,10.625c0,25.984249 0,40.735287 0,67.312496c-7.256744,10.629913 -49.596664,89.774353 -72.576294,134.65625c-7.256714,14.173218 -7.237061,31.889282 3.648018,46.0625c7.256714,10.629883 19.928612,14.1875 32.640137,14.1875c43.540337,0 87.084236,0 130.624535,0c12.711456,0 25.383316,-3.557556 32.640121,-14.1875c10.885101,-14.173218 10.904755,-31.889282 3.648041,-46.0625c-20.560791,-44.881897 -44.751511,-89.774353 -65.312286,-134.65625c0,-25.984245 0,-41.328247 0,-67.312496l10.528046,-10.28125l0.352005,-0.34375l-87.072357,0z" id="path29274" stroke-miterlimit="4" stroke-linejoin="round" stroke-linecap="round" stroke-width="2.5" stroke="#9fabb9" fill-rule="evenodd" fill="#ffffff"/>
  <path d="m195.938004,63.159199c0,22.916599 0,45.832798 0,68.749798c22.552994,47.695999 45.216003,95.361008 67.702988,143.075012c6.291016,14.894989 -1.556,32.255981 -15.163986,39.888c-12.134003,8.143982 -27.07901,4.994995 -40.742004,5.556976c-9.667999,0 -19.335999,0 -29.003998,0c17.30899,-2.228973 34.970993,-2.648987 52.048004,-6.09198c11.215988,-3.501007 24.840988,-9.740997 25.526993,-23.289001c0.704987,-14.462006 -8.367004,-26.699005 -13.192001,-39.768997c-17.391998,-39.790009 -34.783997,-79.580002 -52.175995,-119.37001c0,-22.916 0,-45.833099 0,-68.749798l9.037003,-9.0853l5.031998,0l-9.070007,9.0853l0.001007,0z" id="path6038" stroke-width="1px" fill-rule="evenodd" fill="#ffffff"/>
  <path d="m150.613998,63.159199c0,22.916599 0,45.832798 0,68.749798c-22.554001,47.695999 -49.688995,91.036011 -72.176498,138.75c-6.291199,14.894989 -1.25,35 11.25,43.75c12.499496,6.25 8.75,5 22.878502,6.639008c9.667999,0 45.585991,-0.619019 55.254005,-0.619019c-17.309006,-2.228973 -34.971008,-2.648987 -52.048004,-6.09198c-11.216003,-3.501007 -24.8414,-9.740997 -25.526505,-23.289001c-0.705101,-14.462006 8.366302,-26.699005 13.191498,-39.768997c17.392006,-39.790009 34.785004,-79.580002 52.177002,-119.37001c0,-22.916 0,-45.833099 0,-68.749798l-9.037994,-9.0853l-5.031998,0l9.069992,9.0853l0,0z" id="path1613" stroke-width="1px" fill-rule="evenodd" fill-opacity="0.17625" fill="#000000"/>
 </g>
</svg>