<?xml version="1.0" encoding="UTF-8" standalone="no"?>
<!-- Created with Inkscape (http://www.inkscape.org/) -->

<svg
   xmlns:dc="http://purl.org/dc/elements/1.1/"
   xmlns:cc="http://creativecommons.org/ns#"
   xmlns:rdf="http://www.w3.org/1999/02/22-rdf-syntax-ns#"
   xmlns:svg="http://www.w3.org/2000/svg"
   xmlns="http://www.w3.org/2000/svg"
   xmlns:xlink="http://www.w3.org/1999/xlink"
   xmlns:sodipodi="http://sodipodi.sourceforge.net/DTD/sodipodi-0.dtd"
   xmlns:inkscape="http://www.inkscape.org/namespaces/inkscape"
   width="744.09448819"
   height="1052.3622047"
   id="svg2"
   version="1.1"
   inkscape:version="0.48.4 r9939"
   sodipodi:docname="empirical_spiral.svg">
  <defs
     id="defs4">
    <marker
       inkscape:stockid="Arrow1Mend"
       orient="auto"
       refY="0.0"
       refX="0.0"
       id="Arrow1Mend"
       style="overflow:visible;">
      <path
         id="path3905"
         d="M 0.0,0.0 L 5.0,-5.0 L -12.5,0.0 L 5.0,5.0 L 0.0,0.0 z "
         style="fill-rule:evenodd;stroke:#000000;stroke-width:1.0pt;"
         transform="scale(0.4) rotate(180) translate(10,0)" />
    </marker>
    <marker
       inkscape:stockid="Arrow1Mend"
       orient="auto"
       refY="0"
       refX="0"
       id="Arrow1Mend-3"
       style="overflow:visible">
      <path
         inkscape:connector-curvature="0"
         id="path3905-0"
         d="M 0,0 5,-5 -12.5,0 5,5 0,0 z"
         style="fill-rule:evenodd;stroke:#000000;stroke-width:1pt"
         transform="matrix(-0.4,0,0,-0.4,-4,0)" />
    </marker>
    <marker
       inkscape:stockid="Arrow1Mend"
       orient="auto"
       refY="0"
       refX="0"
       id="Arrow1Mend-4"
       style="overflow:visible">
      <path
         inkscape:connector-curvature="0"
         id="path3905-5"
         d="M 0,0 5,-5 -12.5,0 5,5 0,0 z"
         style="fill-rule:evenodd;stroke:#000000;stroke-width:1pt"
         transform="matrix(-0.4,0,0,-0.4,-4,0)" />
    </marker>
    <marker
       inkscape:stockid="Arrow1Mend"
       orient="auto"
       refY="0"
       refX="0"
       id="Arrow1Mend-46"
       style="overflow:visible">
      <path
         inkscape:connector-curvature="0"
         id="path3905-53"
         d="M 0,0 5,-5 -12.5,0 5,5 0,0 z"
         style="fill-rule:evenodd;stroke:#000000;stroke-width:1pt"
         transform="matrix(-0.4,0,0,-0.4,-4,0)" />
    </marker>
    <marker
       inkscape:stockid="Arrow1Mend"
       orient="auto"
       refY="0"
       refX="0"
       id="Arrow1Mend-7"
       style="overflow:visible">
      <path
         inkscape:connector-curvature="0"
         id="path3905-6"
         d="M 0,0 5,-5 -12.5,0 5,5 0,0 z"
         style="fill-rule:evenodd;stroke:#000000;stroke-width:1pt"
         transform="matrix(-0.4,0,0,-0.4,-4,0)" />
    </marker>
    <linearGradient
       inkscape:collect="always"
       xlink:href="#linearGradient6774"
       id="linearGradient6780"
       gradientTransform="scale(1.012714,0.987445)"
       x1="378.96368"
       y1="249.09000"
       x2="696.14856"
       y2="322.98349"
       gradientUnits="userSpaceOnUse" />
    <linearGradient
       inkscape:collect="always"
       xlink:href="#linearGradient2155"
       id="linearGradient1438"
       gradientUnits="userSpaceOnUse"
       gradientTransform="matrix(0.995490,0.000000,0.000000,1.004531,-16.16244,-105.0559)"
       x1="-16.580158"
       y1="374.09897"
       x2="640.35071"
       y2="430.88434" />
    <linearGradient
       inkscape:collect="always"
       xlink:href="#linearGradient2838"
       id="linearGradient2844"
       gradientTransform="scale(1.235013,0.809708)"
       x1="117.34206"
       y1="188.58949"
       x2="422.29895"
       y2="336.16794"
       gradientUnits="userSpaceOnUse" />
    <linearGradient
       id="linearGradient2838">
      <stop
         style="stop-color:#000000;stop-opacity:1.0000000;"
         offset="0.0000000"
         id="stop2840" />
      <stop
         style="stop-color:#000000;stop-opacity:0.0000000;"
         offset="1.0000000"
         id="stop2842" />
    </linearGradient>
    <linearGradient
       id="linearGradient2155"
       inkscape:collect="always">
      <stop
         id="stop2157"
         offset="0"
         style="stop-color:#adadcf;stop-opacity:1;" />
      <stop
         id="stop2159"
         offset="1"
         style="stop-color:#adadcf;stop-opacity:0;" />
    </linearGradient>
    <linearGradient
       id="linearGradient6774">
      <stop
         style="stop-color:#000000;stop-opacity:1;"
         offset="0"
         id="stop6776" />
      <stop
         style="stop-color:#545454;stop-opacity:1.0000000;"
         offset="1.0000000"
         id="stop6778" />
    </linearGradient>
    <linearGradient
       inkscape:collect="always"
       xlink:href="#linearGradient6774"
       id="linearGradient4873"
       gradientUnits="userSpaceOnUse"
       gradientTransform="scale(1.012714,0.987445)"
       x1="378.96368"
       y1="249.09000"
       x2="696.14856"
       y2="322.98349" />
  </defs>
  <sodipodi:namedview
     id="base"
     pagecolor="#ffffff"
     bordercolor="#666666"
     borderopacity="1.0"
     inkscape:pageopacity="0.0"
     inkscape:pageshadow="2"
     inkscape:zoom="0.7"
     inkscape:cx="242.52608"
     inkscape:cy="1017.6035"
     inkscape:document-units="px"
     inkscape:current-layer="layer1"
     showgrid="false"
     inkscape:window-width="1434"
     inkscape:window-height="943"
     inkscape:window-x="206"
     inkscape:window-y="75"
     inkscape:window-maximized="0" />
  <metadata
     id="metadata7">
    <rdf:RDF>
      <cc:Work
         rdf:about="">
        <dc:format>image/svg+xml</dc:format>
        <dc:type
           rdf:resource="http://purl.org/dc/dcmitype/StillImage" />
        <dc:title></dc:title>
      </cc:Work>
    </rdf:RDF>
  </metadata>
  <g
     inkscape:label="Layer 1"
     inkscape:groupmode="layer"
     id="layer1">
    <g
       id="g3855"
       transform="translate(14.142136,-16.162441)">
      <g
         transform="translate(4.0406102,-18.182746)"
         id="g3759">
        <path
           sodipodi:type="arc"
           style="fill:#ececec;fill-opacity:1;stroke:#4d4d4d;stroke-width:1.63431954;stroke-linecap:round;stroke-linejoin:round;stroke-miterlimit:4;stroke-opacity:1;stroke-dasharray:none;stroke-dashoffset:0"
           id="path2985"
           sodipodi:cx="452.04327"
           sodipodi:cy="274.03964"
           sodipodi:rx="41.921329"
           sodipodi:ry="21.718279"
           d="m 493.9646,274.03964 c 0,11.99468 -18.76882,21.71828 -41.92133,21.71828 -23.15251,0 -41.92133,-9.7236 -41.92133,-21.71828 0,-11.99467 18.76882,-21.71828 41.92133,-21.71828 23.15251,0 41.92133,9.72361 41.92133,21.71828 z"
           transform="matrix(1.8356264,0,0,1.8356264,-397.22255,-264.35008)" />
        <text
           xml:space="preserve"
           style="font-size:48px;font-style:normal;font-weight:normal;line-height:125%;letter-spacing:0px;word-spacing:0px;fill:#000000;fill-opacity:1;stroke:none;font-family:Sans"
           x="366.35886"
           y="246.14038"
           id="text2987"
           sodipodi:linespacing="125%"><tspan
             sodipodi:role="line"
             id="tspan2989"
             x="366.35886"
             y="246.14038"
             style="font-size:20px">Observations</tspan></text>
      </g>
    </g>
    <g
       id="g3849"
       transform="translate(-22.223356,-5.0507627)">
      <path
         transform="matrix(1.8356264,0,0,1.8356264,-272.17836,-100.20031)"
         d="m 493.9646,274.03964 c 0,11.99468 -18.76882,21.71828 -41.92133,21.71828 -23.15251,0 -41.92133,-9.7236 -41.92133,-21.71828 0,-11.99467 18.76882,-21.71828 41.92133,-21.71828 23.15251,0 41.92133,9.72361 41.92133,21.71828 z"
         sodipodi:ry="21.718279"
         sodipodi:rx="41.921329"
         sodipodi:cy="274.03964"
         sodipodi:cx="452.04327"
         id="path2985-3"
         style="fill:#ececec;fill-opacity:1;stroke:#4d4d4d;stroke-width:1.63431954;stroke-linecap:round;stroke-linejoin:round;stroke-miterlimit:4;stroke-opacity:1;stroke-dasharray:none;stroke-dashoffset:0"
         sodipodi:type="arc" />
      <text
         sodipodi:linespacing="125%"
         id="text2987-4"
         y="400.90244"
         x="557.15497"
         style="font-size:48px;font-style:normal;font-weight:normal;line-height:125%;letter-spacing:0px;word-spacing:0px;fill:#000000;fill-opacity:1;stroke:none;font-family:Sans"
         xml:space="preserve"><tspan
           style="font-size:20px;text-align:center;text-anchor:middle"
           y="400.90244"
           x="557.15497"
           id="tspan2989-9"
           sodipodi:role="line">Knowledge</tspan><tspan
           id="tspan3842"
           style="font-size:20px;text-align:center;text-anchor:middle"
           y="425.90244"
           x="557.15497"
           sodipodi:role="line">Theory</tspan></text>
    </g>
    <g
       id="g3844"
       transform="translate(-5.0507627,-1.0101525)">
      <path
         transform="matrix(1.8356264,0,0,1.8356264,-438.85353,47.28197)"
         d="m 493.9646,274.03964 c 0,11.99468 -18.76882,21.71828 -41.92133,21.71828 -23.15251,0 -41.92133,-9.7236 -41.92133,-21.71828 0,-11.99467 18.76882,-21.71828 41.92133,-21.71828 23.15251,0 41.92133,9.72361 41.92133,21.71828 z"
         sodipodi:ry="21.718279"
         sodipodi:rx="41.921329"
         sodipodi:cy="274.03964"
         sodipodi:cx="452.04327"
         id="path2985-7"
         style="fill:#ececec;fill-opacity:1;stroke:#4d4d4d;stroke-width:1.63431954;stroke-linecap:round;stroke-linejoin:round;stroke-miterlimit:4;stroke-opacity:1;stroke-dasharray:none;stroke-dashoffset:0"
         sodipodi:type="arc" />
      <text
         sodipodi:linespacing="125%"
         id="text2987-0"
         y="557.7724"
         x="360.86069"
         style="font-size:48px;font-style:normal;font-weight:normal;line-height:125%;letter-spacing:0px;word-spacing:0px;fill:#000000;fill-opacity:1;stroke:none;font-family:Sans"
         xml:space="preserve"><tspan
           style="font-size:20px"
           y="557.7724"
           x="360.86069"
           id="tspan2989-1"
           sodipodi:role="line">Model</tspan></text>
    </g>
    <g
       id="g3866"
       transform="translate(-14.142136,9.0913729)">
      <path
         transform="matrix(1.8356264,0,0,1.8356264,-672.19877,-56.76375)"
         d="m 493.9646,274.03964 c 0,11.99468 -18.76882,21.71828 -41.92133,21.71828 -23.15251,0 -41.92133,-9.7236 -41.92133,-21.71828 0,-11.99467 18.76882,-21.71828 41.92133,-21.71828 23.15251,0 41.92133,9.72361 41.92133,21.71828 z"
         sodipodi:ry="21.718279"
         sodipodi:rx="41.921329"
         sodipodi:cy="274.03964"
         sodipodi:cx="452.04327"
         id="path2985-8"
         style="fill:#ececec;fill-opacity:1;stroke:#4d4d4d;stroke-width:1.63431954;stroke-linecap:round;stroke-linejoin:round;stroke-miterlimit:4;stroke-opacity:1;stroke-dasharray:none;stroke-dashoffset:0"
         sodipodi:type="arc" />
      <text
         sodipodi:linespacing="125%"
         id="text2987-8"
         y="451.78824"
         x="98.18927"
         style="font-size:48px;font-style:normal;font-weight:normal;line-height:125%;letter-spacing:0px;word-spacing:0px;fill:#000000;fill-opacity:1;stroke:none;font-family:Sans"
         xml:space="preserve"><tspan
           style="font-size:20px"
           y="451.78824"
           x="98.18927"
           id="tspan2989-8"
           sodipodi:role="line">Hypotheses</tspan></text>
    </g>
    <g
       id="g3861"
       transform="translate(-7.0710678,-19.192898)">
      <path
         transform="matrix(1.8356264,0,0,1.8356264,-647.95511,-246.67242)"
         d="m 493.9646,274.03964 c 0,11.99468 -18.76882,21.71828 -41.92133,21.71828 -23.15251,0 -41.92133,-9.7236 -41.92133,-21.71828 0,-11.99467 18.76882,-21.71828 41.92133,-21.71828 23.15251,0 41.92133,9.72361 41.92133,21.71828 z"
         sodipodi:ry="21.718279"
         sodipodi:rx="41.921329"
         sodipodi:cy="274.03964"
         sodipodi:cx="452.04327"
         id="path2985-1"
         style="fill:#ececec;fill-opacity:1;stroke:#4d4d4d;stroke-width:1.63431954;stroke-linecap:round;stroke-linejoin:round;stroke-miterlimit:4;stroke-opacity:1;stroke-dasharray:none;stroke-dashoffset:0"
         sodipodi:type="arc" />
      <text
         sodipodi:linespacing="125%"
         id="text2987-2"
         y="261.87955"
         x="118.31184"
         style="font-size:48px;font-style:normal;font-weight:normal;line-height:125%;letter-spacing:0px;word-spacing:0px;fill:#000000;fill-opacity:1;stroke:none;font-family:Sans"
         xml:space="preserve"><tspan
           style="font-size:20px"
           y="261.87955"
           x="118.31184"
           id="tspan2989-4"
           sodipodi:role="line">Experiments</tspan></text>
    </g>
    <path
       style="fill:none;stroke:#000000;stroke-width:3;stroke-linecap:butt;stroke-linejoin:miter;stroke-miterlimit:4;stroke-opacity:1;stroke-dasharray:none;marker-end:url(#Arrow1Mend)"
       d="m 498.32599,236.29538 c 11.64078,17.47196 39.01151,47.64005 42.76877,119.26701"
       id="path3890"
       inkscape:connector-curvature="0"
       sodipodi:nodetypes="cc" />
    <path
       style="fill:none;stroke:#000000;stroke-width:3;stroke-linecap:butt;stroke-linejoin:miter;stroke-miterlimit:4;stroke-opacity:1;stroke-dasharray:none;marker-end:url(#Arrow1Mend)"
       d="m 527.40686,438.91286 c -11.00514,29.20374 -31.8179,62.11527 -69.63016,89.86337"
       id="path3890-7"
       inkscape:connector-curvature="0"
       sodipodi:nodetypes="cc" />
    <path
       style="fill:none;stroke:#000000;stroke-width:3;stroke-linecap:butt;stroke-linejoin:miter;stroke-miterlimit:4;stroke-opacity:1;stroke-dasharray:none;marker-end:url(#Arrow1Mend)"
       d="M 322.43194,572.00986 C 251.57188,564.00689 213.4566,545.42755 167.8777,496.57589"
       id="path3890-70"
       inkscape:connector-curvature="0"
       sodipodi:nodetypes="cc" />
    <path
       style="fill:none;stroke:#000000;stroke-width:3;stroke-linecap:butt;stroke-linejoin:miter;stroke-miterlimit:4;stroke-opacity:1;stroke-dasharray:none;marker-end:url(#Arrow1Mend)"
       d="M 130.5362,413.65174 C 115.09671,359.8865 123.94069,329.49109 142.68948,277.65086"
       id="path3890-9"
       inkscape:connector-curvature="0"
       sodipodi:nodetypes="cc" />
    <path
       style="fill:none;stroke:#000000;stroke-width:3;stroke-linecap:butt;stroke-linejoin:miter;stroke-miterlimit:4;stroke-opacity:1;stroke-dasharray:none;marker-end:url(#Arrow1Mend)"
       d="m 201.3913,200.16402 c 34.11513,-36.07911 136.62225,-64.60609 205.65381,-33.451"
       id="path3890-1"
       inkscape:connector-curvature="0"
       sodipodi:nodetypes="cc" />
    <g
       id="g4904">
      <g
         transform="matrix(0.11332302,0,0,0.11332302,415.37738,667.15548)"
         id="g6796">
        <g
           id="g6782">
          <path
             style="fill:#c2c2c2;fill-opacity:1;fill-rule:evenodd;stroke:#000000;stroke-width:5;stroke-linecap:round;stroke-linejoin:round;stroke-miterlimit:4;stroke-opacity:1;stroke-dasharray:none"
             d="m 617.49998,526.78572 c 6.19166,2.29293 16.23323,-2.17166 17.85715,-8.57143 L 726.07141,160.7143 c 2.74972,-10.8365 -3.88669,-17.09158 -10.71429,-17.5 L 398.92856,124.28573 c -4.48436,-0.26825 -6.0533,7.07033 -7.14286,11.42857 l -70.35714,281.42857 296.07142,109.64285 z"
             id="path2202"
             sodipodi:nodetypes="czzzzzcz"
             inkscape:connector-curvature="0" />
          <path
             style="fill:#c2c2c2;fill-opacity:1;fill-rule:evenodd;stroke:#000000;stroke-width:1;stroke-linecap:round;stroke-linejoin:round;stroke-miterlimit:4;stroke-opacity:1"
             d="m 392.94933,130.77651 c 1.05739,-4.26065 1.56211,-6.02346 12.77484,-5.28536 l 310.47397,20.43764 c 4.81065,0.31667 5.68701,3.69299 3.03045,14.14214 l -90.91372,357.59399 c -3.59452,14.13844 -12.94523,7.22579 -19.1929,5.05076 L 324.76404,423.72074 c -5.09046,-1.77217 -1.80339,-10.93103 -0.50508,-16.16244 l 68.69037,-276.78179 z"
             id="path1440"
             sodipodi:nodetypes="czzzzzzzz"
             inkscape:connector-curvature="0" />
          <path
             style="fill:url(#linearGradient4873);fill-opacity:1;fill-rule:evenodd;stroke:none"
             d="m 401.07142,137.50002 303.92856,22.14285 -86.07142,340.71428 -286.07143,-93.57143 68.21429,-269.2857 z"
             id="path2200"
             inkscape:connector-curvature="0" />
        </g>
        <g
           id="g6787">
          <path
             style="fill:#c2c2c2;fill-opacity:1;fill-rule:evenodd;stroke:#000000;stroke-width:5;stroke-linecap:round;stroke-linejoin:round;stroke-miterlimit:4;stroke-opacity:1;stroke-dasharray:none"
             d="m 23.571428,442.50001 0.714286,17.85714 c 0.162055,4.05137 4.280135,7.37654 7.857142,9.28571 L 270.35714,596.78572 c 11.06364,5.90503 13.24315,6.05418 25.71428,3.57143 l 310.35714,-61.78572 c 5.14258,-1.02378 10,-6.89935 10,-12.14285 l 0,-18.21429 L 310.90862,405.65663 23.571428,442.50001 z"
             id="path3727"
             sodipodi:nodetypes="czzzzzzccc"
             inkscape:connector-curvature="0" />
          <path
             style="fill:#c2c2c2;fill-opacity:1;fill-rule:evenodd;stroke:#000000;stroke-width:1;stroke-linecap:round;stroke-linejoin:round;stroke-miterlimit:4;stroke-opacity:1;stroke-dasharray:none"
             d="m 266.07142,565.71429 c 18.81786,9.52332 27.3655,4.30523 40.71428,1.78571 l 304.64286,-57.49999 c 2.09264,-0.39498 10.59526,-1.27466 -2.85715,-5.71429 l -287.85713,-95 c -8.52278,-2.81273 -15.25059,-2.69912 -22.82125,-1.72443 L 34.163161,441.51524 c -14.679061,1.88986 -8.909972,2.32599 -3.091733,5.27048 L 266.07142,565.71429 z"
             id="path3725"
             sodipodi:nodetypes="czzzzzzzz"
             inkscape:connector-curvature="0" />
          <path
             style="fill:#646464;fill-opacity:1;fill-rule:evenodd;stroke:#000000;stroke-width:0.25pt;stroke-linecap:butt;stroke-linejoin:miter;stroke-opacity:1"
             d="m 188.57143,432.85715 130.71428,-16.07143 239.2857,82.5 -146.42856,25 -223.57142,-91.42857 z"
             id="path4487"
             sodipodi:nodetypes="ccccc"
             inkscape:connector-curvature="0" />
          <path
             style="fill:#646464;fill-opacity:1;fill-rule:evenodd;stroke:#000000;stroke-width:0.25pt;stroke-linecap:butt;stroke-linejoin:miter;stroke-opacity:1"
             d="m 141.78571,476.78572 c -5.62618,0.71561 -3.58017,3.58918 -2.14286,4.28572 l 46.42857,22.49999 c 4.01561,1.94603 8.80234,2.81134 13.21429,2.14286 l 82.5,-12.5 c 2.16076,-0.32739 12.83053,-1.76731 3.21428,-5.71428 l -47.85714,-19.64286 c -4.31767,-1.77218 -9.29866,-2.01746 -13.92857,-1.42857 l -81.42857,10.35714 z"
             id="path4489"
             sodipodi:nodetypes="czzzzzzzz"
             inkscape:connector-curvature="0" />
          <path
             style="fill:#646464;fill-opacity:1;fill-rule:evenodd;stroke:#000000;stroke-width:0.25pt;stroke-linecap:butt;stroke-linejoin:miter;stroke-opacity:1"
             d="m 164.40232,522.96822 c -0.86207,-0.44841 -2.86684,-0.71846 -2.90418,0.25254 l -0.12627,3.283 c -0.0647,1.68234 1.53589,3.26552 3.03045,4.04061 l 101.77287,52.78046 c 0.89673,0.46506 2.98002,1.00889 3.03046,0 l 0.12626,-2.52538 c 0.0762,-1.52323 -0.16218,-3.33683 -1.51522,-4.04061 L 164.40232,522.96822 z"
             id="path4491"
             sodipodi:nodetypes="czzzzzzzz"
             inkscape:connector-curvature="0" />
          <path
             style="fill:#646464;fill-opacity:1;fill-rule:evenodd;stroke:#000000;stroke-width:0.25pt;stroke-linecap:butt;stroke-linejoin:miter;stroke-opacity:1"
             d="m 119.28571,498.75001 c -0.9137,-0.47009 -3.21428,-1.20612 -3.21428,-0.17858 l 0,4.64286 c 0,1.54418 0.77346,3.39351 2.14285,4.10714 l 25.35715,13.21429 c 0.89891,0.46845 2.96083,1.18945 3.03571,0.17857 l 0.35714,-4.82143 c 0.13293,-1.79463 -1.43553,-3.641 -3.03571,-4.46428 l -24.64286,-12.67857 z"
             id="path5251"
             sodipodi:nodetypes="czzzzzzzz"
             inkscape:connector-curvature="0" />
          <path
             sodipodi:type="arc"
             style="fill:#646464;fill-opacity:1;fill-rule:evenodd;stroke:#000000;stroke-width:1.00000036;stroke-linecap:round;stroke-linejoin:round;stroke-miterlimit:4;stroke-opacity:1;stroke-dasharray:none"
             id="path5253"
             sodipodi:cx="556.42853"
             sodipodi:cy="510.71429"
             sodipodi:rx="10.714286"
             sodipodi:ry="3.2142856"
             d="m 567.14281,510.71429 c 0,1.77521 -4.79695,3.21429 -10.71428,3.21429 -5.91734,0 -10.71429,-1.43908 -10.71429,-3.21429 0,-1.7752 4.79695,-3.21428 10.71429,-3.21428 5.91733,0 10.71428,1.43908 10.71428,3.21428 z"
             transform="matrix(0.996926,0.07834392,-0.07834392,0.996926,37.79303,-42.73734)" />
        </g>
      </g>
      <path
         transform="translate(-125.9029,-7.3633275)"
         d="m 542.45193,657.39252 a 22.223356,22.223356 0 1 1 -44.44671,0 22.223356,22.223356 0 1 1 44.44671,0 z"
         sodipodi:ry="22.223356"
         sodipodi:rx="22.223356"
         sodipodi:cy="657.39252"
         sodipodi:cx="520.22858"
         id="path4404"
         style="fill:#ececec;fill-opacity:1;stroke:#4d4d4d;stroke-width:1;stroke-linecap:round;stroke-linejoin:round;stroke-miterlimit:4;stroke-opacity:1;stroke-dasharray:none;stroke-dashoffset:0"
         sodipodi:type="arc" />
      <path
         inkscape:connector-curvature="0"
         id="path4406"
         d="m 395.33581,674.0869 0,76.13337"
         style="fill:none;stroke:#000000;stroke-width:1;stroke-linecap:butt;stroke-linejoin:miter;stroke-miterlimit:4;stroke-opacity:1;stroke-dasharray:none" />
      <path
         inkscape:connector-curvature="0"
         id="path4408"
         d="m 394.33581,696.49622 -48.48732,18.18275"
         style="fill:none;stroke:#000000;stroke-width:1px;stroke-linecap:butt;stroke-linejoin:miter;stroke-opacity:1" />
      <path
         inkscape:connector-curvature="0"
         id="path4408-3"
         d="M 444.82313,714.67897 396.33581,696.49622"
         style="fill:none;stroke:#000000;stroke-width:1px;stroke-linecap:butt;stroke-linejoin:miter;stroke-opacity:1" />
      <g
         transform="translate(-125.9029,-53.830344)"
         id="g4458">
        <path
           style="fill:none;stroke:#000000;stroke-width:1px;stroke-linecap:butt;stroke-linejoin:miter;stroke-opacity:1"
           d="m 522.23871,803.8545 18.18275,48.48732"
           id="path4408-0"
           inkscape:connector-curvature="0" />
        <path
           style="fill:none;stroke:#000000;stroke-width:1px;stroke-linecap:butt;stroke-linejoin:miter;stroke-opacity:1"
           d="m 520.23871,803.8545 -18.18274,48.48732"
           id="path4408-3-9"
           inkscape:connector-curvature="0" />
      </g>
      <g
         id="g4900">
        <path
           style="fill:none;stroke:#9fc5de;stroke-width:1;stroke-linecap:round;stroke-linejoin:round;stroke-miterlimit:4;stroke-opacity:1;stroke-dasharray:none"
           inkscape:connector-curvature="0"
           d="m 327.00918,696.37948 2.11842,1.63949 c 0.52477,4.54685 0.82268,7.12806 1.35943,11.77868 -1.05514,2.00663 -6.86561,16.71081 -9.98028,25.02857 -0.98358,2.62665 -0.62235,5.7263 1.56861,7.98657 1.4845,1.71351 3.77374,2.08012 5.99807,1.8234 7.6189,-0.87933 15.23844,-1.75873 22.85734,-2.63805 2.22432,-0.25672 4.36985,-1.13516 5.425,-3.1418 1.6185,-2.69993 1.26415,-5.80037 -0.29191,-8.13392 -4.50425,-7.43842 -9.64391,-14.80539 -14.14816,-22.2438 -0.52477,-4.54686 -0.83465,-7.23183 -1.35942,-11.77868 l 1.63461,-2.01169 0.0546,-0.0673 -15.23636,1.75849 z"
           id="path29274"
           stroke-miterlimit="4" />
        <path
           style="fill:#69de79;fill-opacity:0.43378996;stroke:none"
           inkscape:connector-curvature="0"
           d="m 326.29445,720.16399 c -1.97384,4.9666 -4.20513,10.72208 -5.76246,14.88095 -0.98357,2.62665 -0.62235,5.72631 1.56862,7.98657 1.4845,1.71352 3.77374,2.08013 5.99806,1.82341 7.6189,-0.87933 15.23844,-1.75873 22.85734,-2.63806 2.22432,-0.25672 4.36986,-1.13515 5.42501,-3.14179 1.6185,-2.69993 1.26414,-5.80038 -0.29192,-8.13392 -2.25213,-3.71921 -4.6631,-7.42056 -7.07407,-11.12191 z"
           id="path29274-9"
           stroke-miterlimit="4"
           sodipodi:nodetypes="cscsscccc" />
      </g>
    </g>
    <text
       xml:space="preserve"
       style="font-size:48px;font-style:normal;font-weight:normal;line-height:125%;letter-spacing:0px;word-spacing:0px;fill:#000000;fill-opacity:1;stroke:none;font-family:Sans"
       x="532.85718"
       y="288.07648"
       id="text4853"
       sodipodi:linespacing="125%"><tspan
         sodipodi:role="line"
         id="tspan4855"
         x="532.85718"
         y="288.07648"
         style="font-size:20px">update</tspan></text>
    <text
       xml:space="preserve"
       style="font-size:20px;font-style:normal;font-weight:normal;line-height:125%;letter-spacing:0px;word-spacing:0px;fill:#000000;fill-opacity:1;stroke:none;font-family:Sans"
       x="504.28571"
       y="502.36218"
       id="text4857"
       sodipodi:linespacing="125%"><tspan
         sodipodi:role="line"
         id="tspan4859"
         x="504.28571"
         y="502.36218">build</tspan></text>
    <text
       xml:space="preserve"
       style="font-size:20px;font-style:normal;font-weight:normal;line-height:125%;letter-spacing:0px;word-spacing:0px;fill:#000000;fill-opacity:1;stroke:none;font-family:Sans"
       x="190"
       y="578.07648"
       id="text4861"
       sodipodi:linespacing="125%"><tspan
         sodipodi:role="line"
         id="tspan4863"
         x="190"
         y="578.07648">derive</tspan></text>
    <text
       xml:space="preserve"
       style="font-size:20px;font-style:normal;font-weight:normal;line-height:125%;letter-spacing:0px;word-spacing:0px;fill:#000000;fill-opacity:1;stroke:none;font-family:Sans"
       x="62.857143"
       y="352.36218"
       id="text4865"
       sodipodi:linespacing="125%"><tspan
         sodipodi:role="line"
         id="tspan4867"
         x="62.857143"
         y="352.36218">drive</tspan></text>
    <text
       xml:space="preserve"
       style="font-size:20px;font-style:normal;font-weight:normal;line-height:125%;letter-spacing:0px;word-spacing:0px;fill:#000000;fill-opacity:1;stroke:none;font-family:Sans"
       x="231.42857"
       y="148.07648"
       id="text4869"
       sodipodi:linespacing="125%"><tspan
         sodipodi:role="line"
         id="tspan4871"
         x="231.42857"
         y="148.07648">produce</tspan></text>
  </g>
</svg>
